#!OML:ASF E:\acrobat2\Project_11_07_03\Capture day 1\Session 1\Acrobat.ASF
:FULLY-SPECIFIED
:DEGREES
113
root 5.67737 17.798 -22.7083 34.606 85.7348 23.3919
lowerback 2.1818 -3.58511 -4.44302
upperback 1.13006 -4.84841 2.11956
thorax 0.497357 -2.46214 4.73181
lowerneck 10.7177 -21.6827 -8.18416
upperneck -14.5059 -27.9941 22.5122
head -1.54026 -15.0534 8.22942
rclavicle 5.62064e-014 -4.45278e-014
rhumerus -37.0685 3.82444 -82.4454
rradius 27.5263
rwrist 0.358725
rhand -3.36329 -39.648
rfingers 7.12502
rthumb 22.3653 -68.3734
lclavicle 5.62064e-014 -4.45278e-014
lhumerus -34.3945 -5.5931 75.2071
lradius 26.931
lwrist 10.3485
lhand -8.55176 -10.6509
lfingers 7.12502
lthumb 17.3779 18.5923
rfemur -28.0655 -7.38362 5.92577
rtibia 38.2062
rfoot -20.3238 -15.4119
rtoes 4.64877
lfemur -10.3816 0.0437152 -4.65788
ltibia 13.8609
lfoot -12.4858 -11.078
ltoes 50.5713
114
root 5.68134 17.7722 -22.6338 36.3337 85.6615 24.9433
lowerback 2.2866 -3.47008 -4.38096
upperback 1.19209 -4.69629 2.01813
thorax 0.471319 -2.385 4.5972
lowerneck 10.735 -21.5028 -8.23152
upperneck -14.5767 -27.7097 22.9304
head -1.53124 -14.9419 8.37144
rclavicle -1.34677e-014 1.27222e-014
rhumerus -36.9922 3.36629 -82.5153
rradius 27.3254
rwrist 0.817596
rhand -3.37707 -39.4246
rfingers 7.12502
rthumb 22.352 -68.1516
lclavicle -1.34677e-014 1.27222e-014
lhumerus -34.1944 -6.09627 75.0189
lradius 26.7618
lwrist 10.53
lhand -8.4341 -10.3705
lfingers 7.12502
lthumb 17.4911 18.8627
rfemur -29.1186 -7.83555 6.02094
rtibia 39.4339
rfoot -19.8504 -14.6865
rtoes 2.27477
lfemur -10.7566 0.55693 -4.50019
ltibia 14.2668
lfoot -11.8232 -11.4988
ltoes 51.6025
115
root 5.69685 17.7381 -22.5719 45.9033 85.0935 34.4906
lowerback 2.40992 -3.35667 -5.00221
upperback 1.26441 -4.56182 1.72953
thorax 0.487745 -2.32213 4.65132
lowerneck 10.6977 -21.5233 -8.279
upperneck -14.7156 -27.7183 23.067
head -1.53599 -14.9565 8.41421
rclavicle 6.16232e-015 7.95139e-015
rhumerus -36.9947 3.0253 -82.496
rradius 27.189
rwrist 1.36118
rhand -3.10303 -39.187
rfingers 7.12502
rthumb 22.6151 -67.8822
lclavicle 6.16232e-015 7.95139e-015
lhumerus -33.9405 -6.14358 74.8386
lradius 26.4398
lwrist 10.2605
lhand -8.10187 -10.3796
lfingers 7.12502
lthumb 17.8108 18.8248
rfemur -30.0328 -9.28265 5.33105
rtibia 40.7937
rfoot -18.6592 -14.3147
rtoes -3.32614
lfemur -10.838 0.5714 -5.47384
ltibia 14.4668
lfoot -11.7663 -11.6233
ltoes 51.6318
116
root 5.70402 17.7018 -22.5027 51.9473 84.706 40.2643
lowerback 2.3803 -3.32539 -5.35287
upperback 1.24882 -4.52644 1.58433
thorax 0.50007 -2.30611 4.69563
lowerneck 10.56 -21.567 -8.43183
upperneck -14.8283 -27.7802 23.1957
head -1.4953 -14.987 8.44144
rclavicle 4.84041e-014 -1.43125e-014
rhumerus -37.0373 3.15712 -82.6815
rradius 27.1537
rwrist 1.52923
rhand -3.07847 -39.0311
rfingers 7.12502
rthumb 22.6387 -67.7234
lclavicle 4.84041e-014 -1.43125e-014
lhumerus -33.765 -6.43047 74.7936
lradius 26.156
lwrist 10.17
lhand -7.89848 -10.394
lfingers 7.12502
lthumb 18.0065 18.7924
rfemur -30.8404 -9.13926 4.26119
rtibia 41.6464
rfoot -20.8367 -11.312
rtoes 15.5768
lfemur -11.3617 1.01405 -6.00787
ltibia 14.888
lfoot -11.2929 -11.8979
ltoes 51.8975
117
root 5.70633 17.6654 -22.4186 53.9418 84.5839 41.8397
lowerback 2.27232 -3.29242 -5.47965
upperback 1.18734 -4.48153 1.63792
thorax 0.505971 -2.28409 4.81733
lowerneck 10.454 -21.5622 -8.5111
upperneck -15.067 -27.7456 23.3311
head -1.52046 -14.978 8.48967
rclavicle -2.09718e-014 8.34896e-015
rhumerus -37.0645 3.27934 -82.8214
rradius 27.1131
rwrist 1.72987
rhand -2.88829 -38.981
rfingers 7.12502
rthumb 22.8212 -67.6509
lclavicle -2.09718e-014 8.34896e-015
lhumerus -33.6 -6.72688 74.8046
lradius 25.8601
lwrist 9.96814
lhand -8.40108 -10.1802
lfingers 7.12502
lthumb 17.5229 19.0501
rfemur -32.1512 -9.87584 4.46098
rtibia 42.8824
rfoot -20.6709 -11.2614
rtoes 12.179
lfemur -12.075 1.72693 -5.86721
ltibia 15.4279
lfoot -10.6764 -12.2256
ltoes 52.4295
